#!OML:ASF F:\VICON\USERDATA\INSTALL\rory3\rory3.ASF
:FULLY-SPECIFIED
:DEGREES
60
root 0.3063858387192573 17.754692018479812 14.911285722763564 -0.5348542399164704 -3.666262025835114 -7.27632691494758
lfemur -26.185512247661507 -7.6056564768800525 -8.964941388117303
ltibia 27.723766150621472
lfoot -4.829967619721771 -2.8225434776048774
ltoes -4.126041729177095
rfemur 2.5828097109191095 6.8236530281326715 32.201848852762346
rtibia 40.74016856934349
rfoot -9.342793296464047 -4.39293022735231
rtoes 2.509759686272958
lowerback 9.237379688216787 1.9327610860320221 5.544569516711074
upperback -0.08980347458253071 3.386654743159953 1.846920795836455
thorax -5.020264414184674 1.4443435584491162 -1.5546234827235044
lowerneck -15.932237327700037 -2.7973102467800612 -1.726569157200551
upperneck 21.355917192157982 -3.3384744964010418 0.758453334137425
head 9.422343943054889 -1.83174356849143 0.04975708175008531
lclavicle -1.3860207462394871e-15 -1.8423909079126853e-15
lhumerus -37.27885272875845 10.492219831573161 79.45011144359047
lradius 19.59630130047794
lwrist -0.1990834557866088
lhand -26.965193855200827 24.34268035289032
lfingers 7.125019999999999
lthumb -0.6570108217296204 54.024091089607076
rclavicle -1.3880244277700807e-15 -1.8442527671427125e-15
rhumerus -21.228720304691606 -12.61790714892755 -82.09271858571557
rradius 24.42758879681299
rwrist 1.0766051600181834
rhand -18.40755926540429 22.672884760016245
rfingers 7.125019999999999
rthumb 7.946625019456226 -7.053957589092251
61
root 0.3828227964154246 17.7133251479357 16.320148413782654 -0.834506922048937 -3.560970753156961 -6.658351917072407
lfemur -26.49809065096889 -4.993331769086204 -11.03560049397752
ltibia 30.05107446209442
lfoot -5.867572413162682 -2.865295778271268
ltoes -4.725103812770407
rfemur 3.979930460513204 6.986710897325535 31.829750879535688
rtibia 42.89233075762593
rfoot -8.546763236343596 -4.012183546558185
rtoes 3.1230863806759888
lowerback 9.263138987051775 1.9482677407777071 5.109572206305297
upperback -0.07936068146213907 3.324783972707725 1.6761030461716224
thorax -5.036521732331325 1.4390823987223031 -1.4479115024034057
lowerneck -15.854957386439722 -2.8257319099300444 -1.699739417754508
upperneck 21.37609573946036 -3.4078280100976324 0.816771254258032
head 9.424417874395024 -1.8449512077590624 0.07317545931135672
lclavicle -1.3860207461537904e-15 -1.842390907833054e-15
lhumerus -37.416369166176125 11.013960263137207 79.09233715818263
lradius 20.842199146373982
lwrist 0.17564362666932443
lhand -27.042210054626963 24.197048960654655
lfingers 7.125019999999999
lthumb -0.825909210375145 53.71704806950024
rclavicle -1.3880244278056207e-15 -1.844252767175737e-15
rhumerus -21.51361148276809 -13.349244683753485 -81.99576364041374
rradius 24.778164016432903
rwrist 1.1444718551411928
rhand -18.450656387033323 22.61782597511044
rfingers 7.125019999999999
rthumb 7.967834093561449 -7.011838744557535
62
root 0.46137070642003425 17.694204569246423 17.37913853383523 -1.446890664763268 -3.361797068500734 -5.822849574124874
lfemur -26.43545538925047 -3.5472151180686513 -13.162573115444033
ltibia 32.52562897126097
lfoot -6.63087889300725 -2.300410608105554
ltoes -5.128997016370417
rfemur 3.8622284568185616 6.772100221545832 30.82337137822772
rtibia 44.41664632301236
rfoot -7.338115639581868 -3.6177511397772677
rtoes 4.08363863594836
lowerback 9.363346633919384 1.9187814146833921 4.451582982155486
upperback -0.032609444663359605 3.2296114554457356 1.4643349318899392
thorax -5.076179397841574 1.4147845047344376 -1.272608120040139
lowerneck -15.84291160068216 -2.875432811491985 -1.7249561426095223
upperneck 21.37875087986904 -3.4840307340403593 0.8547532497320723
head 9.441943421652088 -1.8383904126637176 0.1019854173583214
lclavicle -1.3860207461539864e-15 -1.8423909078332363e-15
lhumerus -37.44923798744744 11.082244014204093 78.93330070080307
lradius 21.937838855122934
lwrist 0.7334764747125528
lhand -27.043122912842932 24.23612255684035
lfingers 7.125019999999999
lthumb -0.6706780149319863 53.975390154061515
rclavicle -1.3880244278058507e-15 -1.8442527671759508e-15
rhumerus -22.119197717372508 -14.45027094986163 -81.69071159336761
rradius 25.23752101501638
rwrist 1.3601164616797004
rhand -18.43299144414171 22.637466321319216
rfingers 7.125019999999999
rthumb 7.952318232574908 -7.006363297163967
63
root 0.5410124212799082 17.700450922143876 18.233483826917265 -2.197195919853196 -3.2255098229340957 -4.791366682525018
lfemur -25.275359850436768 -3.3651641819724754 -15.1716143331965
ltibia 34.296288216913254
lfoot -8.2525546190235 -2.4888997161151876
ltoes -5.432837537029368
rfemur 3.3716711502874066 6.348462764478276 29.68186538667441
rtibia 45.27201958348868
rfoot -5.941610002295171 -3.3548411482255047
rtoes 4.787522642757722
lowerback 9.510879905669018 1.8344932691639124 3.5656181491990337
upperback 0.02929084805629123 3.0675189296090553 1.2217200585273047
thorax -5.129590800108023 1.3657842852007016 -1.0277297962932137
lowerneck -15.808313375124127 -2.9049278553872786 -1.741811136684494
upperneck 21.34169252691342 -3.558033855945459 0.8777013077449108
head 9.429583277763532 -1.832962587050242 0.11397660217483208
lclavicle -1.3860207461539756e-15 -1.8423909078332265e-15
lhumerus -37.250594748753215 10.609126703973672 79.05793491208516
lradius 22.82703170548444
lwrist 1.5153218800737358
lhand -27.083929991909766 24.150422644610703
lfingers 7.125019999999999
lthumb -0.8416312763904961 53.65595938092702
rclavicle -1.3880244278061167e-15 -1.8442527671761977e-15
rhumerus -23.10482161645166 -16.064335111725065 -81.32895218643188
rradius 25.703793305322417
rwrist 1.7148609306745008
rhand -18.427293865967055 22.655056288790746
rfingers 7.125019999999999
rthumb 7.971615188377457 -6.965117979656302
64
root 0.6174644427920912 17.727558356743657 18.98152193270103 -2.9013595825213576 -3.2728119008193546 -3.6164362152155425
lfemur -23.615489954777424 -2.696957755114447 -17.118424535520077
ltibia 35.315318433092294
lfoot -8.18467868806244 -1.5499716784673645
ltoes -5.613979628690899
rfemur 1.7836612384650987 5.663489487162771 28.22309209630316
rtibia 45.79568726552182
rfoot -4.606658871784619 -3.3344443998945854
rtoes 5.041019115920321
lowerback 9.728153442119932 1.7664224237351467 2.7286576419314423
upperback 0.12843805151512527 2.8748224134771703 0.9901118138178105
thorax -5.183516970636901 1.2991567260614458 -0.722029283991301
lowerneck -15.818557651363742 -2.931417553746243 -1.789418409787333
upperneck 21.257848817197154 -3.6235924791938103 0.875010048929808
head 9.4134198100578 -1.8141178265635263 0.12996290851385994
lclavicle -1.3860207461542341e-15 -1.8423909078334667e-15
lhumerus -36.835098951365076 9.54658544804083 79.40869385043302
lradius 23.697666196553094
lwrist 2.099441723738284
lhand -27.11236098785142 24.13072985345639
lfingers 7.125019999999999
lthumb -0.64430162528945 53.98819270076904
rclavicle -1.3880244278061668e-15 -1.8442527671762446e-15
rhumerus -24.050785401933375 -17.816869522527526 -80.77931332747522
rradius 26.097988061413226
rwrist 2.1397547127569063
rhand -18.403796065250276 22.682538664270723
rfingers 7.125019999999999
rthumb 7.98521324250061 -6.917366399307525
65
root 0.6854755781748182 17.767660925100554 19.748947474532002 -3.443877412143774 -3.4706190668567105 -2.410320912367715
lfemur -21.06788277998632 -1.9878656715317569 -19.32770961553105
ltibia 35.440686278773086
lfoot -9.24889152845418 -1.691432984800851
ltoes -5.791805032097666
rfemur -0.5453777183483961 4.952404178330458 26.724968884841083
rtibia 46.21344342548405
rfoot -3.486773715355559 -3.511066264983022
rtoes 5.6530999453493695
lowerback 9.944804219981913 1.6354985813219967 1.8568155462109783
upperback 0.2385638398881764 2.5978935534521153 0.7958019165007773
thorax -5.252701542059678 1.1873786027430566 -0.4223144931918079
lowerneck -15.792382929765191 -2.933954519481835 -1.8225742092116464
upperneck 21.12577914957625 -3.6760498427235557 0.8652140306407597
head 9.382136035825283 -1.8014005537622533 0.12627930267331794
lclavicle -1.3860207461539915e-15 -1.842390907833241e-15
lhumerus -36.05269294824868 8.200861353325173 79.8795448539193
lradius 24.60915266593216
lwrist 2.79709025661706
lhand -27.161078293114883 24.03276840766824
lfingers 7.125019999999999
lthumb -0.7898985757897922 53.70580730229695
rclavicle -1.3880244278062571e-15 -1.8442527671763282e-15
rhumerus -24.95360434872409 -19.760241128394515 -80.15863110964985
rradius 26.32242485672819
rwrist 2.907582076951486
rhand -18.38527944562372 22.68318911089836
rfingers 7.125019999999999
rthumb 7.989340042700834 -6.912714798216721
